<?xml version="1.0" encoding="UTF-8"?>
<svg width="44px" height="32px" viewBox="0 0 44 32" version="1.1" xmlns="http://www.w3.org/2000/svg" xmlns:xlink="http://www.w3.org/1999/xlink">
    <title>Group 56</title>
    <g id="Page-1" stroke="none" stroke-width="1" fill="none" fill-rule="evenodd">
        <g id="Desktop-HD" transform="translate(-1053.000000, -2165.000000)">
            <g id="Group-48" transform="translate(196.000000, 1721.000000)">
                <g id="Group-47" transform="translate(718.000000, 98.000000)">
                    <g id="Group-56" transform="translate(139.303822, 346.000000)">
                        <polygon id="Path-10" fill="#FFDB5A" points="14.0023814 8.85918839 0 22.7804482 0 31.8591884 29 31.8591884 29 24.8624301"></polygon>
                        <polygon id="Path-10" fill="#FFEBA5" opacity="0.723321097" points="30.6120932 15.0366071 20 24.3678228 20 31.8591884 39.5643976 31.8591884 39.5643976 24.8295034"></polygon>
                        <path d="M31,22.6056043 L22.880709,22.6056043 L18.8411276,10.093603 L31,22.6056043 Z M13.5428555,22.6056043 L17.7041594,9.82875625 L21.8239973,22.6056043 L13.5428555,22.6056043 Z M12.4874814,22.6056043 L4.36819041,22.6056043 L16.5524774,10.0962782 L12.4874814,22.6056043 Z M18.212451,1.23461377 L23.1870216,3.16210939 L18.212451,5.089605 L18.212451,1.23461377 Z M30.6120932,4.55857394 L35.5880014,6.48740716 L30.6120932,8.41624038 L30.6120932,4.55857394 Z M42.3161783,23.0844686 C42.3161783,23.0189257 42.3028022,22.9533828 42.27605,22.8931904 C42.2479602,22.8316604 42.2225456,22.7768184 42.1690412,22.730002 L30.6120932,11.2666867 L30.6120932,9.4916786 L37.1530047,6.95557056 C37.3536462,6.88066442 37.4740311,6.69473666 37.4740311,6.48740716 C37.4740311,6.28141526 37.3536462,6.0941499 37.1530047,6.02058136 L30.3044429,3.36542606 L30.2910668,3.36007562 C30.2643147,3.34803714 30.2241864,3.34937475 30.1987718,3.34402431 C30.170682,3.33867387 30.1439298,3.32663538 30.1038015,3.32663538 L30.1038015,3.32797299 C30.0489595,3.32797299 30.0101688,3.34134909 29.9700405,3.35204997 C29.9566644,3.35873801 29.9285746,3.35873801 29.90316,3.36810128 C29.8764078,3.38013977 29.8630317,3.40154153 29.8362795,3.41893045 C29.8095273,3.43765699 29.7680614,3.4523707 29.756023,3.47644767 C29.7292708,3.49249899 29.7292708,3.51523835 29.7158947,3.53396489 C29.6891425,3.56740513 29.6623903,3.60084537 29.6490142,3.63963606 C29.6356381,3.64231128 29.6356381,3.64364889 29.6356381,3.64632411 C29.622262,3.67708913 29.622262,3.70785415 29.622262,3.73861918 C29.622262,3.76804659 29.6088859,3.79613639 29.6088859,3.82823903 L29.6088859,11.3723579 L25.4890479,15.4935334 L18.212451,8.00291897 L18.212451,6.16638082 L24.752025,3.63027279 C24.9540041,3.55536664 25.0743889,3.36943889 25.0743889,3.16210939 C25.0743889,2.95477988 24.9540041,2.77018974 24.752025,2.69394598 L17.9048008,0.0401282917 L17.8900871,0.0347778528 C17.8512964,0.0227393653 17.8245442,0.024076975 17.797792,0.0187265361 C17.7710398,0.0133760972 17.7442876,1.10134124e-13 17.7041594,1.10134124e-13 L17.7041594,0.00133760972 C17.650655,0.00267521945 17.6105267,0.0160513167 17.5703984,0.0267521945 C17.5556847,0.0334402431 17.5302701,0.0334402431 17.5035179,0.0428035111 C17.4767657,0.0548419986 17.4486759,0.0762437542 17.4366374,0.0949702903 C17.3965091,0.113696826 17.3697569,0.127072924 17.3416671,0.151149899 C17.3296286,0.167201215 17.3296286,0.189940581 17.3162525,0.208667117 C17.2895003,0.24210736 17.2627481,0.274209993 17.249372,0.314338285 C17.2359959,0.317013504 17.2359959,0.318351114 17.2359959,0.321026334 C17.2226199,0.351791357 17.2226199,0.382556381 17.2226199,0.413321404 C17.2226199,0.442748818 17.2092438,0.470838623 17.2092438,0.501603646 L17.2092438,7.99489332 L2.84197772,22.7353525 C2.82993923,22.747391 2.82993923,22.7621047 2.81656313,22.7741431 C2.78981094,22.8129338 2.74968265,22.8530621 2.73630655,22.8998785 C2.72293045,22.925293 2.72293045,22.9507076 2.72293045,22.9774598 C2.70955436,23.0122377 2.69617826,23.0470155 2.69617826,23.0858062 L2.69617826,31.3575847 C2.69617826,31.63447 2.92357191,31.8591884 3.20446995,31.8591884 C3.4719919,31.8591884 3.69938555,31.63447 3.69938555,31.3575847 L3.69938555,23.6088116 L12.3537205,23.6088116 L12.3537205,31.3575847 C12.3537205,31.63447 12.5811141,31.8591884 12.8486361,31.8591884 C13.1295341,31.8591884 13.3569278,31.63447 13.3569278,31.3575847 L13.3569278,23.6088116 L22.0112627,23.6088116 L22.0112627,31.3575847 C22.0112627,31.63447 22.2386563,31.8591884 22.5061783,31.8591884 C22.7870763,31.8591884 23.01447,31.63447 23.01447,31.3575847 L23.01447,23.6088116 L31.6554288,23.6088116 L31.6554288,31.3575847 C31.6554288,31.63447 31.8828224,31.8591884 32.1637205,31.8591884 C32.4446185,31.8591884 32.6586361,31.63447 32.6586361,31.3575847 L32.6586361,23.0858062 C32.6586361,23.0644045 32.6586361,23.0456779 32.6586361,23.0256138 C32.64526,22.9814727 32.64526,22.9386691 32.6318839,22.8972032 C32.6037941,22.8557373 32.5783795,22.8196219 32.5516273,22.784844 C32.5382512,22.7687927 32.5382512,22.7514038 32.5248751,22.7353525 L32.5248751,22.7313396 L32.511499,22.730002 L26.1859426,16.2131675 L30.1573059,12.2364537 L41.312971,23.2944733 L41.312971,31.3575847 C41.312971,31.63447 41.5403646,31.8591884 41.8212627,31.8591884 C42.087447,31.8591884 42.3161783,31.63447 42.3161783,31.3575847 L42.3161783,23.0844686 L42.3161783,23.0844686 Z" id="Fill-6153" fill="#1A1919"></path>
                    </g>
                </g>
            </g>
        </g>
    </g>
</svg>