<?xml version="1.0" encoding="UTF-8"?>
<svg width="29px" height="25px" viewBox="0 0 29 25" version="1.1" xmlns="http://www.w3.org/2000/svg" xmlns:xlink="http://www.w3.org/1999/xlink">
    <title>Fill 3043</title>
    <g id="Page-1" stroke="none" stroke-width="1" fill="none" fill-rule="evenodd">
        <g id="Desktop-HD" transform="translate(-1190.000000, -6128.000000)" fill="#FFDD04">
            <path d="M1204.41052,6152.852 C1204.17052,6152.84 1204.01052,6152.691 1203.93052,6152.606 L1200.43052,6149.701 C1199.02052,6148.489 1197.95052,6147.551 1197.27052,6146.911 C1197.08052,6146.727 1192.81052,6142.53 1191.69052,6140.965 C1190.54052,6139.399 1189.98052,6137.722 1190.00052,6135.982 C1190.00052,6131.603 1193.50052,6128.019 1197.79952,6128 C1197.87052,6128 1197.92052,6128.002 1197.97052,6128.004 L1198.03052,6128.007 C1200.56052,6128.007 1202.40052,6129.671 1203.27052,6130.664 C1203.40052,6130.819 1203.39052,6131.056 1203.23052,6131.193 C1203.08052,6131.329 1202.83952,6131.314 1202.70052,6131.158 C1201.92052,6130.261 1200.26052,6128.757 1198.03052,6128.757 L1197.94052,6128.754 C1197.90052,6128.752 1197.85052,6128.75 1197.81052,6128.75 C1193.92052,6128.767 1190.75052,6132.014 1190.75052,6135.988 C1190.73052,6137.567 1191.25052,6139.091 1192.29052,6140.525 C1193.38052,6142.04 1197.75052,6146.327 1197.79052,6146.37 C1198.46052,6146.996 1199.51052,6147.926 1200.91052,6149.128 L1204.44052,6152.05 C1204.54952,6151.957 1207.17052,6149.769 1207.92052,6149.129 C1208.87052,6148.316 1210.17052,6147.185 1211.04052,6146.375 C1211.06052,6146.354 1211.08052,6146.334 1211.10052,6146.317 C1211.13052,6146.297 1211.15052,6146.278 1211.17052,6146.254 C1213.89052,6143.62 1215.45952,6142.019 1216.54052,6140.527 C1217.58052,6139.096 1218.10052,6137.571 1218.08052,6135.993 C1218.07052,6132.015 1214.91052,6128.767 1211.02052,6128.75 C1210.98052,6128.75 1210.91052,6128.75 1210.81052,6128.756 C1207.70052,6128.757 1205.20052,6131.77 1204.78052,6133.319 C1204.72052,6133.518 1204.51052,6133.638 1204.32052,6133.582 C1204.12052,6133.528 1204.00052,6133.322 1204.05052,6133.122 C1204.54052,6131.337 1207.27052,6128.007 1210.79052,6128.007 C1210.87952,6128 1210.95952,6128 1211.02052,6128 C1215.32052,6128.019 1218.82052,6131.603 1218.83052,6135.987 C1218.85052,6137.727 1218.29052,6139.404 1217.14052,6140.967 C1216.04052,6142.504 1214.44052,6144.128 1211.70952,6146.773 C1211.68052,6146.799 1211.66052,6146.828 1211.62052,6146.86 C1211.61052,6146.866 1211.61052,6146.872 1211.60052,6146.878 C1210.72052,6147.7 1209.37952,6148.865 1208.40052,6149.698 C1207.68052,6150.319 1205.19052,6152.397 1204.94052,6152.611 C1204.76052,6152.806 1204.57052,6152.852 1204.44052,6152.852 C1204.43052,6152.852 1204.42052,6152.852 1204.41052,6152.852 Z" id="Fill-3043"></path>
        </g>
    </g>
</svg>